<svg width="104" height="103" viewBox="0 0 104 103" fill="none" xmlns="http://www.w3.org/2000/svg">
<path d="M26.4991 51.474C40.684 51.474 52.1832 39.9511 52.1832 25.737C52.1832 11.5228 40.684 0 26.4991 0C12.3141 0 0.814941 11.5228 0.814941 25.737C0.814941 39.9511 12.3141 51.474 26.4991 51.474Z" fill="#0A0358"/>
<path d="M77.8574 51.474C92.0424 51.474 103.542 39.9511 103.542 25.737C103.542 11.5228 92.0424 0 77.8574 0C63.6725 0 52.1733 11.5228 52.1733 25.737C52.1733 39.9511 63.6725 51.474 77.8574 51.474Z" fill="#0A0358"/>
<path d="M26.4991 102.95C40.684 102.95 52.1832 91.4267 52.1832 77.2126C52.1832 62.9984 40.684 51.4756 26.4991 51.4756C12.3141 51.4756 0.814941 62.9984 0.814941 77.2126C0.814941 91.4267 12.3141 102.95 26.4991 102.95Z" fill="#0A0358"/>
<path d="M77.8574 102.95C92.0424 102.95 103.542 91.4267 103.542 77.2126C103.542 62.9984 92.0424 51.4756 77.8574 51.4756C63.6725 51.4756 52.1733 62.9984 52.1733 77.2126C52.1733 91.4267 63.6725 102.95 77.8574 102.95Z" fill="#0A0358"/>
</svg>
