<svg width="92" height="92" viewBox="0 0 92 92" fill="none" xmlns="http://www.w3.org/2000/svg">
<rect width="92" height="92" fill="white"/>
<path d="M45.9906 41.0959C50.5791 41.0959 54.2988 37.3985 54.2988 32.8375C54.2988 28.2765 50.5791 24.5791 45.9906 24.5791C41.4021 24.5791 37.6823 28.2765 37.6823 32.8375C37.6823 37.3985 41.4021 41.0959 45.9906 41.0959Z" fill="url(#paint0_angular_891_3417)"/>
<path d="M62.6036 41.0959C67.1921 41.0959 70.9118 37.3985 70.9118 32.8375C70.9118 28.2765 67.1921 24.5791 62.6036 24.5791C58.0151 24.5791 54.2954 28.2765 54.2954 32.8375C54.2954 37.3985 58.0151 41.0959 62.6036 41.0959Z" fill="url(#paint1_angular_891_3417)"/>
<path d="M29.3964 57.6133C33.9849 57.6133 37.7046 53.9159 37.7046 49.3549C37.7046 44.7939 33.9849 41.0965 29.3964 41.0965C24.8079 41.0965 21.0881 44.7939 21.0881 49.3549C21.0881 53.9159 24.8079 57.6133 29.3964 57.6133Z" fill="url(#paint2_angular_891_3417)"/>
<path d="M46.0096 57.6133C50.5981 57.6133 54.3178 53.9159 54.3178 49.3549C54.3178 44.7939 50.5981 41.0965 46.0096 41.0965C41.4211 41.0965 37.7014 44.7939 37.7014 49.3549C37.7014 53.9159 41.4211 57.6133 46.0096 57.6133Z" fill="url(#paint3_angular_891_3417)"/>
<path d="M25.4855 68.3776L25.9407 66.9918L24.5466 63.3297H25.7257L26.5249 65.7236L27.3348 63.3297H28.4064L26.9979 66.9918L26.5715 68.3776H25.4855Z" fill="url(#paint4_angular_891_3417)"/>
<path d="M29.865 64.7083H31.1266C31.117 64.1787 30.9091 63.9139 30.503 63.9139C30.1087 63.9139 29.8961 64.1787 29.865 64.7083ZM32.1049 65.8447C32.0715 66.258 31.9007 66.5715 31.5925 66.7852C31.3153 66.9776 30.9593 67.0738 30.5245 67.0738C29.9606 67.0738 29.5293 66.898 29.2307 66.5465C28.9488 66.2164 28.8078 65.7664 28.8078 65.1964C28.8078 64.5979 28.9499 64.1289 29.2343 63.7892C29.5425 63.4235 29.9905 63.2406 30.5782 63.2406C31.1349 63.2406 31.5542 63.4247 31.8362 63.7928C32.0918 64.1229 32.2196 64.5742 32.2196 65.1465C32.2196 65.2534 32.2172 65.3329 32.2125 65.3852L29.8364 65.3888C29.8459 66.0395 30.0729 66.3648 30.5173 66.3648C30.8613 66.3648 31.074 66.1915 31.1552 65.8447H32.1049Z" fill="url(#paint5_angular_891_3417)"/>
<path d="M32.9973 66.9918V61.7373H34.0617V66.9918H32.9973Z" fill="url(#paint6_angular_891_3417)"/>
<path d="M35.0401 66.9918V64.0315C35.0401 63.7774 35.0306 63.5434 35.0115 63.3297H36.0257L36.0544 63.8783C36.322 63.4532 36.7186 63.2406 37.2442 63.2406C37.8105 63.2406 38.1844 63.4793 38.366 63.9567C38.5977 63.4793 38.9991 63.2406 39.5701 63.2406C40.3729 63.2406 40.7743 63.7049 40.7743 64.6335V66.9918H39.7099V64.7796C39.7099 64.269 39.5092 64.0137 39.1078 64.0137C38.8952 64.0137 38.7291 64.0814 38.6097 64.2167C38.4902 64.3497 38.4305 64.5231 38.4305 64.7368V66.9918H37.3661V64.7796C37.3661 64.269 37.169 64.0137 36.7747 64.0137C36.5621 64.0137 36.3972 64.0814 36.2802 64.2167C36.1631 64.3497 36.1045 64.5231 36.1045 64.7368V66.9918H35.0401Z" fill="url(#paint7_angular_891_3417)"/>
<path d="M42.6379 65.1536C42.6379 65.9611 42.9091 66.3648 43.4515 66.3648C43.9962 66.3648 44.2686 65.9611 44.2686 65.1536C44.2686 64.3462 43.9962 63.9424 43.4515 63.9424C42.9091 63.9424 42.6379 64.3462 42.6379 65.1536ZM41.552 65.1608C41.552 64.5837 41.7241 64.1194 42.0681 63.7679C42.4122 63.4164 42.8733 63.2406 43.4515 63.2406C44.0345 63.2406 44.498 63.4152 44.842 63.7643C45.1885 64.1134 45.3617 64.5789 45.3617 65.1608C45.3617 65.7426 45.1885 66.2081 44.842 66.5572C44.498 66.9063 44.0345 67.0809 43.4515 67.0809C42.8733 67.0809 42.4122 66.9051 42.0681 66.5536C41.7241 66.2022 41.552 65.7379 41.552 65.1608Z" fill="url(#paint8_angular_891_3417)"/>
<path d="M47.9206 65.891H48.9169C48.9312 66.2117 49.1295 66.372 49.5118 66.372C49.8774 66.372 50.0601 66.233 50.0601 65.9552C50.0601 65.7557 49.8332 65.5989 49.3792 65.4849C49.2765 65.4588 49.1893 65.4363 49.1176 65.4173C48.7664 65.3223 48.5071 65.2118 48.3399 65.086C48.1081 64.9078 47.9922 64.6656 47.9922 64.3592C47.9922 63.984 48.1667 63.6954 48.5155 63.4936C48.8046 63.325 49.151 63.2406 49.5548 63.2406C49.9299 63.2406 50.2393 63.3166 50.483 63.4686C50.7745 63.6491 50.9203 63.9139 50.9203 64.263V64.2915H49.9813C49.9431 64.0089 49.7722 63.8676 49.4688 63.8676C49.3326 63.8676 49.2179 63.8961 49.1247 63.9531C49.0101 64.0196 48.9527 64.1158 48.9527 64.2417C48.9527 64.4127 49.1893 64.5528 49.6623 64.662C49.7077 64.6715 49.7913 64.6917 49.9132 64.7226C50.2764 64.8105 50.5451 64.9209 50.7196 65.0539C50.9609 65.2344 51.0815 65.4838 51.0815 65.802C51.0815 66.2057 50.9095 66.5263 50.5655 66.7638C50.262 66.9752 49.8989 67.0809 49.476 67.0809C49.0292 67.0809 48.6732 66.9954 48.408 66.8244C48.0902 66.6201 47.9277 66.309 47.9206 65.891Z" fill="url(#paint9_angular_891_3417)"/>
<path d="M52.7014 64.7083H53.963C53.9534 64.1787 53.7455 63.9139 53.3394 63.9139C52.9451 63.9139 52.7325 64.1787 52.7014 64.7083ZM54.9414 65.8447C54.9079 66.258 54.7371 66.5715 54.4289 66.7852C54.1517 66.9776 53.7957 67.0738 53.3609 67.0738C52.797 67.0738 52.3658 66.898 52.0671 66.5465C51.7852 66.2164 51.6442 65.7664 51.6442 65.1964C51.6442 64.5979 51.7864 64.1289 52.0707 63.7892C52.3789 63.4235 52.8269 63.2406 53.4146 63.2406C53.9713 63.2406 54.3906 63.4247 54.6726 63.7928C54.9282 64.1229 55.056 64.5742 55.056 65.1465C55.056 65.2534 55.0537 65.3329 55.0489 65.3852L52.6728 65.3888C52.6823 66.0395 52.9093 66.3648 53.3537 66.3648C53.6978 66.3648 53.9104 66.1915 53.9916 65.8447H54.9414Z" fill="url(#paint10_angular_891_3417)"/>
<path d="M55.8481 66.9918V64.0315C55.8481 63.8344 55.8361 63.6004 55.8122 63.3297H56.8336L56.8551 63.8783C57.1227 63.4532 57.5194 63.2406 58.045 63.2406C58.8454 63.2406 59.2456 63.7049 59.2456 64.6335V66.9918H58.1919V64.7796C58.1919 64.269 57.9912 64.0137 57.5898 64.0137C57.3772 64.0137 57.2099 64.0814 57.0881 64.2167C56.9662 64.3497 56.9053 64.5231 56.9053 64.7368V66.9918H55.8481Z" fill="url(#paint11_angular_891_3417)"/>
<path d="M59.9409 65.891H60.9372C60.9515 66.2117 61.1498 66.372 61.5321 66.372C61.8977 66.372 62.0804 66.233 62.0804 65.9552C62.0804 65.7557 61.8535 65.5989 61.3995 65.4849C61.2968 65.4588 61.2095 65.4363 61.1379 65.4173C60.7867 65.3223 60.5274 65.2118 60.3602 65.086C60.1284 64.9078 60.0125 64.6656 60.0125 64.3592C60.0125 63.984 60.187 63.6954 60.5358 63.4936C60.8249 63.325 61.1713 63.2406 61.5751 63.2406C61.9502 63.2406 62.2596 63.3166 62.5033 63.4686C62.7948 63.6491 62.9406 63.9139 62.9406 64.263V64.2915H62.0016C61.9634 64.0089 61.7925 63.8676 61.4891 63.8676C61.3529 63.8676 61.2382 63.8961 61.145 63.9531C61.0304 64.0196 60.973 64.1158 60.973 64.2417C60.973 64.4127 61.2095 64.5528 61.6826 64.662C61.728 64.6715 61.8116 64.6917 61.9335 64.7226C62.2967 64.8105 62.5654 64.9209 62.7399 65.0539C62.9812 65.2344 63.1018 65.4838 63.1018 65.802C63.1018 66.2057 62.9298 66.5263 62.5858 66.7638C62.2823 66.9752 61.9192 67.0809 61.4963 67.0809C61.0495 67.0809 60.6935 66.9954 60.4283 66.8244C60.1105 66.6201 59.948 66.309 59.9409 65.891Z" fill="url(#paint12_angular_891_3417)"/>
<path d="M64.7217 64.7083H65.9833C65.9737 64.1787 65.7658 63.9139 65.3597 63.9139C64.9654 63.9139 64.7528 64.1787 64.7217 64.7083ZM66.9617 65.8447C66.9282 66.258 66.7574 66.5715 66.4492 66.7852C66.172 66.9776 65.816 67.0738 65.3812 67.0738C64.8173 67.0738 64.3861 66.898 64.0874 66.5465C63.8055 66.2164 63.6645 65.7664 63.6645 65.1964C63.6645 64.5979 63.8067 64.1289 64.091 63.7892C64.3992 63.4235 64.8472 63.2406 65.4349 63.2406C65.9916 63.2406 66.4109 63.4247 66.6929 63.7928C66.9485 64.1229 67.0763 64.5742 67.0763 65.1465C67.0763 65.2534 67.074 65.3329 67.0692 65.3852L64.6931 65.3888C64.7026 66.0395 64.9296 66.3648 65.374 66.3648C65.7181 66.3648 65.9307 66.1915 66.0119 65.8447H66.9617Z" fill="url(#paint13_angular_891_3417)"/>
<defs>
<radialGradient id="paint0_angular_891_3417" cx="0" cy="0" r="1" gradientUnits="userSpaceOnUse" gradientTransform="translate(51.0982 41.8436) rotate(170.185) scale(27.8688)">
<stop offset="0.0653554" stop-color="#222058"/>
<stop offset="0.191009" stop-color="#DEFF59"/>
<stop offset="0.433332" stop-color="#A9FFB7"/>
<stop offset="0.808198" stop-color="#22ADB3"/>
</radialGradient>
<radialGradient id="paint1_angular_891_3417" cx="0" cy="0" r="1" gradientUnits="userSpaceOnUse" gradientTransform="translate(51.0982 41.8436) rotate(170.185) scale(27.8688)">
<stop offset="0.0653554" stop-color="#222058"/>
<stop offset="0.191009" stop-color="#DEFF59"/>
<stop offset="0.433332" stop-color="#A9FFB7"/>
<stop offset="0.808198" stop-color="#22ADB3"/>
</radialGradient>
<radialGradient id="paint2_angular_891_3417" cx="0" cy="0" r="1" gradientUnits="userSpaceOnUse" gradientTransform="translate(51.0982 41.8436) rotate(170.185) scale(27.8688)">
<stop offset="0.0653554" stop-color="#222058"/>
<stop offset="0.191009" stop-color="#DEFF59"/>
<stop offset="0.433332" stop-color="#A9FFB7"/>
<stop offset="0.808198" stop-color="#22ADB3"/>
</radialGradient>
<radialGradient id="paint3_angular_891_3417" cx="0" cy="0" r="1" gradientUnits="userSpaceOnUse" gradientTransform="translate(51.0982 41.8436) rotate(170.185) scale(27.8688)">
<stop offset="0.0653554" stop-color="#222058"/>
<stop offset="0.191009" stop-color="#DEFF59"/>
<stop offset="0.433332" stop-color="#A9FFB7"/>
<stop offset="0.808198" stop-color="#22ADB3"/>
</radialGradient>
<radialGradient id="paint4_angular_891_3417" cx="0" cy="0" r="1" gradientUnits="userSpaceOnUse" gradientTransform="translate(51.0982 41.8436) rotate(170.185) scale(27.8688)">
<stop offset="0.0653554" stop-color="#222058"/>
<stop offset="0.191009" stop-color="#DEFF59"/>
<stop offset="0.433332" stop-color="#A9FFB7"/>
<stop offset="0.808198" stop-color="#22ADB3"/>
</radialGradient>
<radialGradient id="paint5_angular_891_3417" cx="0" cy="0" r="1" gradientUnits="userSpaceOnUse" gradientTransform="translate(51.0982 41.8436) rotate(170.185) scale(27.8688)">
<stop offset="0.0653554" stop-color="#222058"/>
<stop offset="0.191009" stop-color="#DEFF59"/>
<stop offset="0.433332" stop-color="#A9FFB7"/>
<stop offset="0.808198" stop-color="#22ADB3"/>
</radialGradient>
<radialGradient id="paint6_angular_891_3417" cx="0" cy="0" r="1" gradientUnits="userSpaceOnUse" gradientTransform="translate(51.0982 41.8436) rotate(170.185) scale(27.8688)">
<stop offset="0.0653554" stop-color="#222058"/>
<stop offset="0.191009" stop-color="#DEFF59"/>
<stop offset="0.433332" stop-color="#A9FFB7"/>
<stop offset="0.808198" stop-color="#22ADB3"/>
</radialGradient>
<radialGradient id="paint7_angular_891_3417" cx="0" cy="0" r="1" gradientUnits="userSpaceOnUse" gradientTransform="translate(51.0982 41.8436) rotate(170.185) scale(27.8688)">
<stop offset="0.0653554" stop-color="#222058"/>
<stop offset="0.191009" stop-color="#DEFF59"/>
<stop offset="0.433332" stop-color="#A9FFB7"/>
<stop offset="0.808198" stop-color="#22ADB3"/>
</radialGradient>
<radialGradient id="paint8_angular_891_3417" cx="0" cy="0" r="1" gradientUnits="userSpaceOnUse" gradientTransform="translate(51.0982 41.8436) rotate(170.185) scale(27.8688)">
<stop offset="0.0653554" stop-color="#222058"/>
<stop offset="0.191009" stop-color="#DEFF59"/>
<stop offset="0.433332" stop-color="#A9FFB7"/>
<stop offset="0.808198" stop-color="#22ADB3"/>
</radialGradient>
<radialGradient id="paint9_angular_891_3417" cx="0" cy="0" r="1" gradientUnits="userSpaceOnUse" gradientTransform="translate(51.0982 41.8436) rotate(170.185) scale(27.8688)">
<stop offset="0.0653554" stop-color="#222058"/>
<stop offset="0.191009" stop-color="#DEFF59"/>
<stop offset="0.433332" stop-color="#A9FFB7"/>
<stop offset="0.808198" stop-color="#22ADB3"/>
</radialGradient>
<radialGradient id="paint10_angular_891_3417" cx="0" cy="0" r="1" gradientUnits="userSpaceOnUse" gradientTransform="translate(51.0982 41.8436) rotate(170.185) scale(27.8688)">
<stop offset="0.0653554" stop-color="#222058"/>
<stop offset="0.191009" stop-color="#DEFF59"/>
<stop offset="0.433332" stop-color="#A9FFB7"/>
<stop offset="0.808198" stop-color="#22ADB3"/>
</radialGradient>
<radialGradient id="paint11_angular_891_3417" cx="0" cy="0" r="1" gradientUnits="userSpaceOnUse" gradientTransform="translate(51.0982 41.8436) rotate(170.185) scale(27.8688)">
<stop offset="0.0653554" stop-color="#222058"/>
<stop offset="0.191009" stop-color="#DEFF59"/>
<stop offset="0.433332" stop-color="#A9FFB7"/>
<stop offset="0.808198" stop-color="#22ADB3"/>
</radialGradient>
<radialGradient id="paint12_angular_891_3417" cx="0" cy="0" r="1" gradientUnits="userSpaceOnUse" gradientTransform="translate(51.0982 41.8436) rotate(170.185) scale(27.8688)">
<stop offset="0.0653554" stop-color="#222058"/>
<stop offset="0.191009" stop-color="#DEFF59"/>
<stop offset="0.433332" stop-color="#A9FFB7"/>
<stop offset="0.808198" stop-color="#22ADB3"/>
</radialGradient>
<radialGradient id="paint13_angular_891_3417" cx="0" cy="0" r="1" gradientUnits="userSpaceOnUse" gradientTransform="translate(51.0982 41.8436) rotate(170.185) scale(27.8688)">
<stop offset="0.0653554" stop-color="#222058"/>
<stop offset="0.191009" stop-color="#DEFF59"/>
<stop offset="0.433332" stop-color="#A9FFB7"/>
<stop offset="0.808198" stop-color="#22ADB3"/>
</radialGradient>
</defs>
</svg>
