<svg width="92" height="92" viewBox="0 0 92 92" fill="none" xmlns="http://www.w3.org/2000/svg">
<rect width="92" height="92" fill="url(#paint0_radial_891_3420)"/>
<path d="M45.9906 40.6174C50.5791 40.6174 54.2988 36.92 54.2988 32.359C54.2988 27.798 50.5791 24.1006 45.9906 24.1006C41.4021 24.1006 37.6823 27.798 37.6823 32.359C37.6823 36.92 41.4021 40.6174 45.9906 40.6174Z" fill="white"/>
<path d="M62.6036 40.6174C67.1921 40.6174 70.9118 36.92 70.9118 32.359C70.9118 27.798 67.1921 24.1006 62.6036 24.1006C58.0151 24.1006 54.2954 27.798 54.2954 32.359C54.2954 36.92 58.0151 40.6174 62.6036 40.6174Z" fill="white"/>
<path d="M29.3964 57.1348C33.9849 57.1348 37.7046 53.4373 37.7046 48.8764C37.7046 44.3154 33.9849 40.618 29.3964 40.618C24.8079 40.618 21.0881 44.3154 21.0881 48.8764C21.0881 53.4373 24.8079 57.1348 29.3964 57.1348Z" fill="white"/>
<path d="M46.0096 57.1348C50.5981 57.1348 54.3178 53.4373 54.3178 48.8764C54.3178 44.3154 50.5981 40.618 46.0096 40.618C41.4211 40.618 37.7014 44.3154 37.7014 48.8764C37.7014 53.4373 41.4211 57.1348 46.0096 57.1348Z" fill="white"/>
<path d="M25.4855 67.8991L25.9407 66.5133L24.5466 62.8512H25.7257L26.5249 65.2451L27.3348 62.8512H28.4064L26.9979 66.5133L26.5715 67.8991H25.4855Z" fill="white"/>
<path d="M29.865 64.2298H31.1266C31.117 63.7002 30.9091 63.4354 30.503 63.4354C30.1087 63.4354 29.8961 63.7002 29.865 64.2298ZM32.1049 65.3662C32.0715 65.7795 31.9007 66.0929 31.5925 66.3067C31.3153 66.4991 30.9593 66.5952 30.5245 66.5952C29.9606 66.5952 29.5293 66.4195 29.2307 66.068C28.9488 65.7379 28.8078 65.2879 28.8078 64.7179C28.8078 64.1194 28.9499 63.6503 29.2343 63.3107C29.5425 62.945 29.9905 62.7621 30.5782 62.7621C31.1349 62.7621 31.5542 62.9462 31.8362 63.3143C32.0918 63.6444 32.2196 64.0956 32.2196 64.668C32.2196 64.7749 32.2172 64.8544 32.2125 64.9067L29.8364 64.9102C29.8459 65.561 30.0729 65.8863 30.5173 65.8863C30.8613 65.8863 31.074 65.713 31.1552 65.3662H32.1049Z" fill="white"/>
<path d="M32.9973 66.5133V61.2588H34.0617V66.5133H32.9973Z" fill="white"/>
<path d="M35.0401 66.5133V63.553C35.0401 63.2989 35.0306 63.0649 35.0115 62.8512H36.0257L36.0544 63.3998C36.322 62.9747 36.7186 62.7621 37.2442 62.7621C37.8105 62.7621 38.1844 63.0008 38.366 63.4782C38.5977 63.0008 38.9991 62.7621 39.5701 62.7621C40.3729 62.7621 40.7743 63.2264 40.7743 64.155V66.5133H39.7099V64.3011C39.7099 63.7905 39.5092 63.5352 39.1078 63.5352C38.8952 63.5352 38.7291 63.6028 38.6097 63.7382C38.4902 63.8712 38.4305 64.0446 38.4305 64.2583V66.5133H37.3661V64.3011C37.3661 63.7905 37.169 63.5352 36.7747 63.5352C36.5621 63.5352 36.3972 63.6028 36.2802 63.7382C36.1631 63.8712 36.1045 64.0446 36.1045 64.2583V66.5133H35.0401Z" fill="white"/>
<path d="M42.6379 64.6751C42.6379 65.4826 42.9091 65.8863 43.4515 65.8863C43.9962 65.8863 44.2686 65.4826 44.2686 64.6751C44.2686 63.8677 43.9962 63.4639 43.4515 63.4639C42.9091 63.4639 42.6379 63.8677 42.6379 64.6751ZM41.552 64.6822C41.552 64.1051 41.7241 63.6408 42.0681 63.2894C42.4122 62.9379 42.8733 62.7621 43.4515 62.7621C44.0345 62.7621 44.498 62.9367 44.842 63.2858C45.1885 63.6349 45.3617 64.1004 45.3617 64.6822C45.3617 65.2641 45.1885 65.7296 44.842 66.0787C44.498 66.4278 44.0345 66.6024 43.4515 66.6024C42.8733 66.6024 42.4122 66.4266 42.0681 66.0751C41.7241 65.7236 41.552 65.2594 41.552 64.6822Z" fill="white"/>
<path d="M47.9206 65.4125H48.9169C48.9312 65.7331 49.1295 65.8935 49.5118 65.8935C49.8774 65.8935 50.0601 65.7545 50.0601 65.4767C50.0601 65.2772 49.8332 65.1204 49.3792 65.0064C49.2765 64.9803 49.1893 64.9577 49.1176 64.9387C48.7664 64.8437 48.5071 64.7333 48.3399 64.6074C48.1081 64.4293 47.9922 64.1871 47.9922 63.8807C47.9922 63.5055 48.1667 63.2169 48.5155 63.0151C48.8046 62.8464 49.151 62.7621 49.5548 62.7621C49.9299 62.7621 50.2393 62.8381 50.483 62.9901C50.7745 63.1706 50.9203 63.4354 50.9203 63.7845V63.813H49.9813C49.9431 63.5304 49.7722 63.3891 49.4688 63.3891C49.3326 63.3891 49.2179 63.4176 49.1247 63.4746C49.0101 63.5411 48.9527 63.6373 48.9527 63.7632C48.9527 63.9341 49.1893 64.0743 49.6623 64.1835C49.7077 64.193 49.7913 64.2132 49.9132 64.2441C50.2764 64.3319 50.5451 64.4424 50.7196 64.5754C50.9609 64.7559 51.0815 65.0052 51.0815 65.3235C51.0815 65.7272 50.9095 66.0478 50.5655 66.2853C50.262 66.4967 49.8989 66.6024 49.476 66.6024C49.0292 66.6024 48.6732 66.5169 48.408 66.3459C48.0902 66.1416 47.9277 65.8305 47.9206 65.4125Z" fill="white"/>
<path d="M52.7014 64.2298H53.963C53.9534 63.7002 53.7455 63.4354 53.3394 63.4354C52.9451 63.4354 52.7325 63.7002 52.7014 64.2298ZM54.9414 65.3662C54.9079 65.7795 54.7371 66.0929 54.4289 66.3067C54.1517 66.4991 53.7957 66.5952 53.3609 66.5952C52.797 66.5952 52.3658 66.4195 52.0671 66.068C51.7852 65.7379 51.6442 65.2879 51.6442 64.7179C51.6442 64.1194 51.7864 63.6503 52.0707 63.3107C52.3789 62.945 52.8269 62.7621 53.4146 62.7621C53.9713 62.7621 54.3906 62.9462 54.6726 63.3143C54.9282 63.6444 55.056 64.0956 55.056 64.668C55.056 64.7749 55.0537 64.8544 55.0489 64.9067L52.6728 64.9102C52.6823 65.561 52.9093 65.8863 53.3537 65.8863C53.6978 65.8863 53.9104 65.713 53.9916 65.3662H54.9414Z" fill="white"/>
<path d="M55.8481 66.5133V63.553C55.8481 63.3559 55.8361 63.1219 55.8122 62.8512H56.8336L56.8551 63.3998C57.1227 62.9747 57.5194 62.7621 58.045 62.7621C58.8454 62.7621 59.2456 63.2264 59.2456 64.155V66.5133H58.1919V64.3011C58.1919 63.7905 57.9912 63.5352 57.5898 63.5352C57.3772 63.5352 57.21 63.6028 57.0881 63.7382C56.9662 63.8712 56.9053 64.0446 56.9053 64.2583V66.5133H55.8481Z" fill="white"/>
<path d="M59.9409 65.4125H60.9372C60.9515 65.7331 61.1498 65.8935 61.5321 65.8935C61.8977 65.8935 62.0804 65.7545 62.0804 65.4767C62.0804 65.2772 61.8534 65.1204 61.3995 65.0064C61.2968 64.9803 61.2095 64.9577 61.1379 64.9387C60.7867 64.8437 60.5274 64.7333 60.3602 64.6074C60.1284 64.4293 60.0125 64.1871 60.0125 63.8807C60.0125 63.5055 60.187 63.2169 60.5358 63.0151C60.8249 62.8464 61.1713 62.7621 61.5751 62.7621C61.9502 62.7621 62.2596 62.8381 62.5033 62.9901C62.7948 63.1706 62.9406 63.4354 62.9406 63.7845V63.813H62.0016C61.9634 63.5304 61.7925 63.3891 61.4891 63.3891C61.3529 63.3891 61.2382 63.4176 61.145 63.4746C61.0304 63.5411 60.973 63.6373 60.973 63.7632C60.973 63.9341 61.2095 64.0743 61.6826 64.1835C61.728 64.193 61.8116 64.2132 61.9335 64.2441C62.2967 64.3319 62.5654 64.4424 62.7399 64.5754C62.9812 64.7559 63.1018 65.0052 63.1018 65.3235C63.1018 65.7272 62.9298 66.0478 62.5858 66.2853C62.2823 66.4967 61.9192 66.6024 61.4963 66.6024C61.0495 66.6024 60.6935 66.5169 60.4283 66.3459C60.1105 66.1416 59.948 65.8305 59.9409 65.4125Z" fill="white"/>
<path d="M64.7217 64.2298H65.9833C65.9737 63.7002 65.7658 63.4354 65.3597 63.4354C64.9654 63.4354 64.7528 63.7002 64.7217 64.2298ZM66.9617 65.3662C66.9282 65.7795 66.7574 66.0929 66.4492 66.3067C66.172 66.4991 65.816 66.5952 65.3812 66.5952C64.8173 66.5952 64.3861 66.4195 64.0874 66.068C63.8055 65.7379 63.6645 65.2879 63.6645 64.7179C63.6645 64.1194 63.8067 63.6503 64.091 63.3107C64.3992 62.945 64.8472 62.7621 65.4349 62.7621C65.9916 62.7621 66.4109 62.9462 66.6929 63.3143C66.9485 63.6444 67.0763 64.0956 67.0763 64.668C67.0763 64.7749 67.074 64.8544 67.0692 64.9067L64.6931 64.9102C64.7026 65.561 64.9296 65.8863 65.374 65.8863C65.7181 65.8863 65.9307 65.713 66.0119 65.3662H66.9617Z" fill="white"/>
<defs>
<radialGradient id="paint0_radial_891_3420" cx="0" cy="0" r="1" gradientUnits="userSpaceOnUse" gradientTransform="translate(46.1159 46.1159) rotate(-180) scale(74.272)">
<stop offset="0.228269" stop-color="#22ADB3"/>
<stop offset="0.52824" stop-color="#DEFF59"/>
<stop offset="0.586676" stop-color="#0A0358"/>
<stop offset="0.999624" stop-color="#A9FFB7"/>
</radialGradient>
</defs>
</svg>
