<svg width="93" height="92" viewBox="0 0 93 92" fill="none" xmlns="http://www.w3.org/2000/svg">
<rect x="0.436523" width="92" height="92" fill="url(#paint0_angular_891_3414)"/>
<path d="M46.4271 40.6174C51.0156 40.6174 54.7353 36.92 54.7353 32.359C54.7353 27.798 51.0156 24.1006 46.4271 24.1006C41.8386 24.1006 38.1189 27.798 38.1189 32.359C38.1189 36.92 41.8386 40.6174 46.4271 40.6174Z" fill="white"/>
<path d="M63.0401 40.6174C67.6286 40.6174 71.3483 36.92 71.3483 32.359C71.3483 27.798 67.6286 24.1006 63.0401 24.1006C58.4516 24.1006 54.7319 27.798 54.7319 32.359C54.7319 36.92 58.4516 40.6174 63.0401 40.6174Z" fill="white"/>
<path d="M29.8329 57.1348C34.4214 57.1348 38.1411 53.4373 38.1411 48.8764C38.1411 44.3154 34.4214 40.618 29.8329 40.618C25.2444 40.618 21.5247 44.3154 21.5247 48.8764C21.5247 53.4373 25.2444 57.1348 29.8329 57.1348Z" fill="white"/>
<path d="M46.4461 57.1348C51.0346 57.1348 54.7543 53.4373 54.7543 48.8764C54.7543 44.3154 51.0346 40.618 46.4461 40.618C41.8576 40.618 38.1379 44.3154 38.1379 48.8764C38.1379 53.4373 41.8576 57.1348 46.4461 57.1348Z" fill="white"/>
<path d="M25.9221 67.8991L26.3772 66.5133L24.9831 62.8512H26.1622L26.9614 65.2451L27.7713 62.8512H28.8429L27.4345 66.5133L27.008 67.8991H25.9221Z" fill="white"/>
<path d="M30.3016 64.2298H31.5631C31.5535 63.7002 31.3457 63.4354 30.9395 63.4354C30.5453 63.4354 30.3326 63.7002 30.3016 64.2298ZM32.5415 65.3662C32.508 65.7795 32.3372 66.0929 32.029 66.3067C31.7518 66.4991 31.3958 66.5952 30.961 66.5952C30.3971 66.5952 29.9659 66.4195 29.6672 66.068C29.3853 65.7379 29.2443 65.2879 29.2443 64.7179C29.2443 64.1194 29.3865 63.6503 29.6708 63.3107C29.979 62.945 30.427 62.7621 31.0147 62.7621C31.5714 62.7621 31.9907 62.9462 32.2727 63.3143C32.5283 63.6444 32.6562 64.0956 32.6562 64.668C32.6562 64.7749 32.6538 64.8544 32.649 64.9067L30.2729 64.9102C30.2824 65.561 30.5094 65.8863 30.9538 65.8863C31.2979 65.8863 31.5105 65.713 31.5917 65.3662H32.5415Z" fill="white"/>
<path d="M33.4339 66.5133V61.2588H34.4983V66.5133H33.4339Z" fill="white"/>
<path d="M35.4767 66.5133V63.553C35.4767 63.2989 35.4671 63.0649 35.448 62.8512H36.4622L36.4909 63.3998C36.7585 62.9747 37.1551 62.7621 37.6807 62.7621C38.247 62.7621 38.6209 63.0008 38.8025 63.4782C39.0342 63.0008 39.4356 62.7621 40.0067 62.7621C40.8095 62.7621 41.2108 63.2264 41.2108 64.155V66.5133H40.1464V64.3011C40.1464 63.7905 39.9457 63.5352 39.5444 63.5352C39.3317 63.5352 39.1657 63.6028 39.0462 63.7382C38.9267 63.8712 38.867 64.0446 38.867 64.2583V66.5133H37.8026V64.3011C37.8026 63.7905 37.6055 63.5352 37.2113 63.5352C36.9986 63.5352 36.8338 63.6028 36.7167 63.7382C36.5996 63.8712 36.5411 64.0446 36.5411 64.2583V66.5133H35.4767Z" fill="white"/>
<path d="M43.0745 64.6751C43.0745 65.4826 43.3456 65.8863 43.888 65.8863C44.4327 65.8863 44.7051 65.4826 44.7051 64.6751C44.7051 63.8677 44.4327 63.4639 43.888 63.4639C43.3456 63.4639 43.0745 63.8677 43.0745 64.6751ZM41.9885 64.6822C41.9885 64.1051 42.1606 63.6408 42.5046 63.2894C42.8487 62.9379 43.3098 62.7621 43.888 62.7621C44.471 62.7621 44.9345 62.9367 45.2785 63.2858C45.625 63.6349 45.7982 64.1004 45.7982 64.6822C45.7982 65.2641 45.625 65.7296 45.2785 66.0787C44.9345 66.4278 44.471 66.6024 43.888 66.6024C43.3098 66.6024 42.8487 66.4266 42.5046 66.0751C42.1606 65.7236 41.9885 65.2594 41.9885 64.6822Z" fill="white"/>
<path d="M48.3571 65.4125H49.3534C49.3677 65.7331 49.566 65.8935 49.9483 65.8935C50.3139 65.8935 50.4967 65.7545 50.4967 65.4767C50.4967 65.2772 50.2697 65.1204 49.8157 65.0064C49.713 64.9803 49.6258 64.9577 49.5541 64.9387C49.2029 64.8437 48.9436 64.7333 48.7764 64.6074C48.5446 64.4293 48.4288 64.1871 48.4288 63.8807C48.4288 63.5055 48.6032 63.2169 48.952 63.0151C49.2411 62.8464 49.5875 62.7621 49.9913 62.7621C50.3664 62.7621 50.6758 62.8381 50.9196 62.9901C51.211 63.1706 51.3568 63.4354 51.3568 63.7845V63.813H50.4178C50.3796 63.5304 50.2087 63.3891 49.9053 63.3891C49.7691 63.3891 49.6544 63.4176 49.5613 63.4746C49.4466 63.5411 49.3892 63.6373 49.3892 63.7632C49.3892 63.9341 49.6258 64.0743 50.0988 64.1835C50.1442 64.193 50.2279 64.2132 50.3497 64.2441C50.7129 64.3319 50.9817 64.4424 51.1561 64.5754C51.3974 64.7559 51.5181 65.0052 51.5181 65.3235C51.5181 65.7272 51.346 66.0478 51.002 66.2853C50.6985 66.4967 50.3354 66.6024 49.9125 66.6024C49.4657 66.6024 49.1097 66.5169 48.8445 66.3459C48.5267 66.1416 48.3643 65.8305 48.3571 65.4125Z" fill="white"/>
<path d="M53.138 64.2298H54.3995C54.3899 63.7002 54.1821 63.4354 53.7759 63.4354C53.3817 63.4354 53.169 63.7002 53.138 64.2298ZM55.3779 65.3662C55.3444 65.7795 55.1736 66.0929 54.8654 66.3067C54.5882 66.4991 54.2322 66.5952 53.7974 66.5952C53.2335 66.5952 52.8023 66.4195 52.5036 66.068C52.2217 65.7379 52.0807 65.2879 52.0807 64.7179C52.0807 64.1194 52.2229 63.6503 52.5072 63.3107C52.8154 62.945 53.2634 62.7621 53.8512 62.7621C54.4078 62.7621 54.8272 62.9462 55.1091 63.3143C55.3647 63.6444 55.4926 64.0956 55.4926 64.668C55.4926 64.7749 55.4902 64.8544 55.4854 64.9067L53.1093 64.9102C53.1189 65.561 53.3458 65.8863 53.7902 65.8863C54.1343 65.8863 54.3469 65.713 54.4282 65.3662H55.3779Z" fill="white"/>
<path d="M56.2846 66.5133V63.553C56.2846 63.3559 56.2727 63.1219 56.2488 62.8512H57.2702L57.2917 63.3998C57.5593 62.9747 57.9559 62.7621 58.4815 62.7621C59.2819 62.7621 59.6821 63.2264 59.6821 64.155V66.5133H58.6285V64.3011C58.6285 63.7905 58.4278 63.5352 58.0264 63.5352C57.8137 63.5352 57.6465 63.6028 57.5246 63.7382C57.4028 63.8712 57.3418 64.0446 57.3418 64.2583V66.5133H56.2846Z" fill="white"/>
<path d="M60.3774 65.4125H61.3737C61.388 65.7331 61.5863 65.8935 61.9686 65.8935C62.3342 65.8935 62.5169 65.7545 62.5169 65.4767C62.5169 65.2772 62.29 65.1204 61.836 65.0064C61.7333 64.9803 61.6461 64.9577 61.5744 64.9387C61.2232 64.8437 60.9639 64.7333 60.7967 64.6074C60.5649 64.4293 60.4491 64.1871 60.4491 63.8807C60.4491 63.5055 60.6235 63.2169 60.9723 63.0151C61.2614 62.8464 61.6078 62.7621 62.0116 62.7621C62.3867 62.7621 62.6961 62.8381 62.9398 62.9901C63.2313 63.1706 63.3771 63.4354 63.3771 63.7845V63.813H62.4381C62.3999 63.5304 62.229 63.3891 61.9256 63.3891C61.7894 63.3891 61.6747 63.4176 61.5816 63.4746C61.4669 63.5411 61.4095 63.6373 61.4095 63.7632C61.4095 63.9341 61.6461 64.0743 62.1191 64.1835C62.1645 64.193 62.2482 64.2132 62.37 64.2441C62.7332 64.3319 63.002 64.4424 63.1764 64.5754C63.4177 64.7559 63.5384 65.0052 63.5384 65.3235C63.5384 65.7272 63.3663 66.0478 63.0223 66.2853C62.7188 66.4967 62.3557 66.6024 61.9328 66.6024C61.486 66.6024 61.13 66.5169 60.8648 66.3459C60.547 66.1416 60.3845 65.8305 60.3774 65.4125Z" fill="white"/>
<path d="M65.1583 64.2298H66.4198C66.4102 63.7002 66.2024 63.4354 65.7962 63.4354C65.402 63.4354 65.1893 63.7002 65.1583 64.2298ZM67.3982 65.3662C67.3647 65.7795 67.1939 66.0929 66.8857 66.3067C66.6085 66.4991 66.2525 66.5952 65.8177 66.5952C65.2538 66.5952 64.8226 66.4195 64.5239 66.068C64.242 65.7379 64.101 65.2879 64.101 64.7179C64.101 64.1194 64.2432 63.6503 64.5275 63.3107C64.8357 62.945 65.2837 62.7621 65.8715 62.7621C66.4281 62.7621 66.8475 62.9462 67.1294 63.3143C67.385 63.6444 67.5129 64.0956 67.5129 64.668C67.5129 64.7749 67.5105 64.8544 67.5057 64.9067L65.1296 64.9102C65.1391 65.561 65.3661 65.8863 65.8105 65.8863C66.1546 65.8863 66.3672 65.713 66.4485 65.3662H67.3982Z" fill="white"/>
<defs>
<radialGradient id="paint0_angular_891_3414" cx="0" cy="0" r="1" gradientUnits="userSpaceOnUse" gradientTransform="translate(43.8874 49.3602) rotate(-160.119) scale(33.3906)">
<stop stop-color="#0A0358"/>
<stop offset="0.232292" stop-color="#DEFF59"/>
<stop offset="0.461458" stop-color="#A9FFB7"/>
<stop offset="0.70625" stop-color="#22ADB3"/>
<stop offset="1" stop-color="#0A0358"/>
</radialGradient>
</defs>
</svg>
