<svg width="120" height="120" viewBox="0 0 120 120" fill="none" xmlns="http://www.w3.org/2000/svg">
<path d="M29.9022 59.8043C46.4167 59.8043 59.8043 46.4167 59.8043 29.9022C59.8043 13.3877 46.4167 0 29.9022 0C13.3877 0 0 13.3877 0 29.9022C0 46.4167 13.3877 59.8043 29.9022 59.8043Z" fill="#0A0358"/>
<path d="M89.6953 59.8042C106.21 59.8042 119.597 46.4166 119.597 29.902C119.597 13.3875 106.21 -0.000118256 89.6953 -0.000118256C73.1808 -0.000118256 59.7931 13.3875 59.7931 29.902C59.7931 46.4166 73.1808 59.8042 89.6953 59.8042Z" fill="#0A0358"/>
<path d="M29.9024 119.611C46.4169 119.611 59.8046 106.223 59.8046 89.7086C59.8046 73.1941 46.4169 59.8064 29.9024 59.8064C13.3879 59.8064 0.000244141 73.1941 0.000244141 89.7086C0.000244141 106.223 13.3879 119.611 29.9024 119.611Z" fill="#0A0358"/>
<path d="M89.6953 119.611C106.21 119.611 119.597 106.223 119.597 89.7086C119.597 73.1941 106.21 59.8064 89.6953 59.8064C73.1808 59.8064 59.7931 73.1941 59.7931 89.7086C59.7931 106.223 73.1808 119.611 89.6953 119.611Z" fill="#0A0358"/>
</svg>
